{
  "accessors": [
    {
      "bufferView": 2,
      "componentType": 5126,
      "count": 2730,
      "max": [
        1.4703736305236816,
        -3.065676212310791,
        -2.533189296722412
      ],
      "min": [
        -1.470373511314392,
        -3.2023425102233887,
        -3.4264516830444336
      ],
      "type": "VEC3"
    },
    {
      "bufferView": 2,
      "byteOffset": 32760,
      "componentType": 5126,
      "count": 2730,
      "max": [
        0.9989473223686218,
        0.9999995231628418,
        0.9999997615814209
      ],
      "min": [
        -0.9989538788795471,
        -0.9999994039535522,
        -0.9999997615814209
      ],
      "type": "VEC3"
    },
    {
      "bufferView": 1,
      "componentType": 5126,
      "count": 2730,
      "max": [
        1.0,
        1.0
      ],
      "min": [
        0.0,
        0.0
      ],
      "type": "VEC2"
    },
    {
      "bufferView": 0,
      "componentType": 5125,
      "count": 14976,
      "type": "SCALAR"
    },
    {
      "bufferView": 2,
      "byteOffset": 65520,
      "componentType": 5126,
      "count": 6480,
      "max": [
        0.06322773545980453,
        0.06487381458282471,
        0.06322773545980453
      ],
      "min": [
        -0.761664628982544,
        0.04898127168416977,
        -0.06322773545980453
      ],
      "type": "VEC3"
    },
    {
      "bufferView": 2,
      "byteOffset": 143280,
      "componentType": 5126,
      "count": 6480,
      "max": [
        1.0,
        1.0,
        1.0
      ],
      "min": [
        -1.0,
        -0.003906470723450184,
        -1.0
      ],
      "type": "VEC3"
    },
    {
      "bufferView": 1,
      "byteOffset": 21840,
      "componentType": 5126,
      "count": 6480,
      "max": [
        1.0000001192092896,
        0.9908499121665955
      ],
      "min": [
        0.0,
        0.0
      ],
      "type": "VEC2"
    },
    {
      "bufferView": 0,
      "byteOffset": 59904,
      "componentType": 5125,
      "count": 36864,
      "type": "SCALAR"
    },
    {
      "bufferView": 2,
      "byteOffset": 221040,
      "componentType": 5126,
      "count": 2436,
      "max": [
        0.05104311928153038,
        0.05283203348517418,
        0.05104312673211098
      ],
      "min": [
        -0.7494800090789795,
        0.03533076122403145,
        -0.05104312673211098
      ],
      "type": "VEC3"
    },
    {
      "bufferView": 2,
      "byteOffset": 250272,
      "componentType": 5126,
      "count": 2436,
      "max": [
        0.9995248317718506,
        1.0,
        0.9995248317718506
      ],
      "min": [
        -0.9995267391204834,
        0.03076311945915222,
        -0.9995248317718506
      ],
      "type": "VEC3"
    },
    {
      "bufferView": 3,
      "componentType": 5126,
      "count": 2436,
      "max": [
        0.5875992774963379,
        0.9995224475860596,
        -0.020609261468052864,
        1.0
      ],
      "min": [
        -0.5876160264015198,
        -0.9991163015365601,
        -0.9931385517120361,
        -1.0
      ],
      "type": "VEC4"
    },
    {
      "bufferView": 1,
      "byteOffset": 73680,
      "componentType": 5126,
      "count": 2436,
      "max": [
        0.7791744470596313,
        0.7665137052536011
      ],
      "min": [
        0.22540633380413055,
        0.21554012596607208
      ],
      "type": "VEC2"
    },
    {
      "bufferView": 0,
      "byteOffset": 207360,
      "componentType": 5125,
      "count": 13056,
      "type": "SCALAR"
    },
    {
      "bufferView": 2,
      "byteOffset": 279504,
      "componentType": 5126,
      "count": 8760,
      "max": [
        0.030124658718705177,
        0.5057546496391296,
        0.022323274984955788
      ],
      "min": [
        -0.991279125213623,
        -0.2827010452747345,
        -0.04320627450942993
      ],
      "type": "VEC3"
    },
    {
      "bufferView": 2,
      "byteOffset": 384624,
      "componentType": 5126,
      "count": 8760,
      "max": [
        0.9999006986618042,
        0.2258744090795517,
        0.9999912977218628
      ],
      "min": [
        -0.9999006986618042,
        -0.3708369731903076,
        -0.9998735189437866
      ],
      "type": "VEC3"
    },
    {
      "bufferView": 1,
      "byteOffset": 93168,
      "componentType": 5126,
      "count": 8760,
      "max": [
        0.16415174305438995,
        1.0
      ],
      "min": [
        0.0,
        0.0
      ],
      "type": "VEC2"
    },
    {
      "bufferView": 0,
      "byteOffset": 259584,
      "componentType": 5125,
      "count": 50976,
      "type": "SCALAR"
    },
    {
      "bufferView": 2,
      "byteOffset": 489744,
      "componentType": 5126,
      "count": 8760,
      "max": [
        0.01469065435230732,
        0.5064752101898193,
        0.023194195702672005
      ],
      "min": [
        -0.9758450984954834,
        -0.22988361120224,
        -0.04325202852487564
      ],
      "type": "VEC3"
    },
    {
      "bufferView": 2,
      "byteOffset": 594864,
      "componentType": 5126,
      "count": 8760,
      "max": [
        0.999953031539917,
        0.5417133569717407,
        0.9997344017028809
      ],
      "min": [
        -0.9999532699584961,
        -0.43453067541122437,
        -0.9999936819076538
      ],
      "type": "VEC3"
    },
    {
      "bufferView": 1,
      "byteOffset": 163248,
      "componentType": 5126,
      "count": 8760,
      "max": [
        0.32687491178512573,
        0.9494239091873169
      ],
      "min": [
        0.16415174305438995,
        0.0
      ],
      "type": "VEC2"
    },
    {
      "bufferView": 0,
      "byteOffset": 463488,
      "componentType": 5125,
      "count": 50976,
      "type": "SCALAR"
    },
    {
      "bufferView": 2,
      "byteOffset": 699984,
      "componentType": 5126,
      "count": 4704,
      "max": [
        0.02268540859222412,
        0.046739622950553894,
        0.003612956963479519
      ],
      "min": [
        -0.29545608162879944,
        -0.6785091161727905,
        -0.06873589754104614
      ],
      "type": "VEC3"
    },
    {
      "bufferView": 2,
      "byteOffset": 756432,
      "componentType": 5126,
      "count": 4704,
      "max": [
        0.9932940006256104,
        0.3270401656627655,
        0.9996505975723267
      ],
      "min": [
        -0.9932940006256104,
        -0.41438204050064087,
        -0.9999995231628418
      ],
      "type": "VEC3"
    },
    {
      "bufferView": 1,
      "byteOffset": 233328,
      "componentType": 5126,
      "count": 4704,
      "max": [
        0.46742117404937744,
        0.9221220016479492
      ],
      "min": [
        0.32687491178512573,
        0.0
      ],
      "type": "VEC2"
    },
    {
      "bufferView": 0,
      "byteOffset": 667392,
      "componentType": 5125,
      "count": 27072,
      "type": "SCALAR"
    },
    {
      "bufferView": 2,
      "byteOffset": 812880,
      "componentType": 5126,
      "count": 2866,
      "max": [
        0.020962614566087723,
        2.2504959106445313,
        0.1494557410478592
      ],
      "min": [
        -0.9978289604187012,
        -0.1607322245836258,
        -0.022631967440247536
      ],
      "type": "VEC3"
    },
    {
      "bufferView": 2,
      "byteOffset": 847272,
      "componentType": 5126,
      "count": 2866,
      "max": [
        1.0,
        1.0,
        1.0
      ],
      "min": [
        -1.0,
        -1.0,
        -1.0
      ],
      "type": "VEC3"
    },
    {
      "bufferView": 1,
      "byteOffset": 270960,
      "componentType": 5126,
      "count": 2866,
      "max": [
        0.9447473287582397,
        1.0000001192092896
      ],
      "min": [
        0.0,
        0.0
      ],
      "type": "VEC2"
    },
    {
      "bufferView": 0,
      "byteOffset": 775680,
      "componentType": 5125,
      "count": 10896,
      "type": "SCALAR"
    },
    {
      "bufferView": 2,
      "byteOffset": 881664,
      "componentType": 5126,
      "count": 1574,
      "max": [
        0.013355279341340065,
        0.04209138825535774,
        0.05982254445552826
      ],
      "min": [
        -0.5503674149513245,
        -0.06262578070163727,
        -0.057403262704610825
      ],
      "type": "VEC3"
    },
    {
      "bufferView": 2,
      "byteOffset": 900552,
      "componentType": 5126,
      "count": 1574,
      "max": [
        0.9999997615814209,
        0.9579387903213501,
        0.999274492263794
      ],
      "min": [
        -0.9999997615814209,
        -0.9998433589935303,
        -0.9999573230743408
      ],
      "type": "VEC3"
    },
    {
      "bufferView": 1,
      "byteOffset": 293888,
      "componentType": 5126,
      "count": 1574,
      "max": [
        0.4879853427410126,
        0.9334256052970886
      ],
      "min": [
        0.0,
        0.5860861539840698
      ],
      "type": "VEC2"
    },
    {
      "bufferView": 0,
      "byteOffset": 819264,
      "componentType": 5125,
      "count": 7296,
      "type": "SCALAR"
    },
    {
      "bufferView": 2,
      "byteOffset": 919440,
      "componentType": 5126,
      "count": 208,
      "max": [
        0.2525106370449066,
        -0.49825426936149597,
        -0.4480002820491791
      ],
      "min": [
        -0.2525106370449066,
        -0.551663339138031,
        -0.5919028520584106
      ],
      "type": "VEC3"
    },
    {
      "bufferView": 2,
      "byteOffset": 921936,
      "componentType": 5126,
      "count": 208,
      "max": [
        0.9993513822555542,
        0.0,
        1.0
      ],
      "min": [
        -0.9993513822555542,
        0.0,
        -1.0
      ],
      "type": "VEC3"
    },
    {
      "bufferView": 1,
      "byteOffset": 306480,
      "componentType": 5126,
      "count": 208,
      "max": [
        0.4717961549758911,
        1.0
      ],
      "min": [
        0.0,
        0.0
      ],
      "type": "VEC2"
    },
    {
      "bufferView": 0,
      "byteOffset": 848448,
      "componentType": 5125,
      "count": 624,
      "type": "SCALAR"
    },
    {
      "bufferView": 2,
      "byteOffset": 924432,
      "componentType": 5126,
      "count": 473,
      "max": [
        0.2525106370449066,
        -0.49825426936149597,
        -0.4480002820491791
      ],
      "min": [
        -0.2525106370449066,
        -0.5130777955055237,
        -0.5919028520584106
      ],
      "type": "VEC3"
    },
    {
      "bufferView": 2,
      "byteOffset": 930108,
      "componentType": 5126,
      "count": 473,
      "max": [
        0.16425596177577972,
        -0.985413670539856,
        0.09448593854904175
      ],
      "min": [
        -0.16425596177577972,
        -0.9999980926513672,
        -0.014954280108213425
      ],
      "type": "VEC3"
    },
    {
      "bufferView": 1,
      "byteOffset": 308144,
      "componentType": 5126,
      "count": 473,
      "max": [
        0.38738155364990234,
        0.9407239556312561
      ],
      "min": [
        0.08511228114366531,
        0.058963801711797714
      ],
      "type": "VEC2"
    },
    {
      "bufferView": 0,
      "byteOffset": 850944,
      "componentType": 5125,
      "count": 2520,
      "type": "SCALAR"
    },
    {
      "bufferView": 2,
      "byteOffset": 935784,
      "componentType": 5126,
      "count": 1119,
      "max": [
        0.269414484500885,
        0.08130801469087601,
        0.00716923363506794
      ],
      "min": [
        -0.269414484500885,
        0.0024785331916064024,
        -0.006617316510528326
      ],
      "type": "VEC3"
    },
    {
      "bufferView": 2,
      "byteOffset": 949212,
      "componentType": 5126,
      "count": 1119,
      "max": [
        1.0,
        0.998227596282959,
        1.0
      ],
      "min": [
        -1.0,
        -0.9999986886978149,
        -1.0
      ],
      "type": "VEC3"
    },
    {
      "bufferView": 1,
      "byteOffset": 311928,
      "componentType": 5126,
      "count": 1119,
      "max": [
        0.7874612808227539,
        0.9229718446731567
      ],
      "min": [
        0.09436432272195816,
        0.0
      ],
      "type": "VEC2"
    },
    {
      "bufferView": 0,
      "byteOffset": 861024,
      "componentType": 5125,
      "count": 5184,
      "type": "SCALAR"
    },
    {
      "bufferView": 2,
      "byteOffset": 962640,
      "componentType": 5126,
      "count": 1005,
      "max": [
        0.06359998136758804,
        0.06400996446609497,
        0.06359998136758804
      ],
      "min": [
        -0.06359998136758804,
        -0.05919444561004639,
        -0.06359998881816864
      ],
      "type": "VEC3"
    },
    {
      "bufferView": 2,
      "byteOffset": 974700,
      "componentType": 5126,
      "count": 1005,
      "max": [
        1.0,
        0.0,
        1.0
      ],
      "min": [
        -1.0,
        -1.0,
        -1.0
      ],
      "type": "VEC3"
    },
    {
      "bufferView": 1,
      "byteOffset": 320880,
      "componentType": 5126,
      "count": 1005,
      "max": [
        0.9116849899291992,
        0.9274846911430359
      ],
      "min": [
        0.0,
        0.11587359011173248
      ],
      "type": "VEC2"
    },
    {
      "bufferView": 0,
      "byteOffset": 881760,
      "componentType": 5125,
      "count": 4800,
      "type": "SCALAR"
    },
    {
      "bufferView": 2,
      "byteOffset": 986760,
      "componentType": 5126,
      "count": 1475,
      "max": [
        0.06359998136758804,
        0.0606621652841568,
        0.06359998136758804
      ],
      "min": [
        -0.06359998136758804,
        -0.06383420526981354,
        -0.06359998136758804
      ],
      "type": "VEC3"
    },
    {
      "bufferView": 2,
      "byteOffset": 1004460,
      "componentType": 5126,
      "count": 1475,
      "max": [
        1.0,
        1.0,
        1.0
      ],
      "min": [
        -1.0,
        -0.9940454959869385,
        -1.0
      ],
      "type": "VEC3"
    },
    {
      "bufferView": 1,
      "byteOffset": 328920,
      "componentType": 5126,
      "count": 1475,
      "max": [
        0.9272376894950867,
        0.9281971454620361
      ],
      "min": [
        0.0,
        0.0
      ],
      "type": "VEC2"
    },
    {
      "bufferView": 0,
      "byteOffset": 900960,
      "componentType": 5125,
      "count": 6246,
      "type": "SCALAR"
    },
    {
      "bufferView": 2,
      "byteOffset": 1022160,
      "componentType": 5126,
      "count": 1344,
      "max": [
        0.48243311047554016,
        0.3572032153606415,
        -0.46444228291511536
      ],
      "min": [
        -0.48243311047554016,
        0.1389136165380478,
        -0.5952692627906799
      ],
      "type": "VEC3"
    },
    {
      "bufferView": 2,
      "byteOffset": 1038288,
      "componentType": 5126,
      "count": 1344,
      "max": [
        0.9999813437461853,
        0.05043515935540199,
        0.07565797120332718
      ],
      "min": [
        -0.9999813437461853,
        -0.09224969893693924,
        0.005460882559418678
      ],
      "type": "VEC3"
    },
    {
      "bufferView": 1,
      "byteOffset": 340720,
      "componentType": 5126,
      "count": 1344,
      "max": [
        0.7165470123291016,
        0.4297260642051697
      ],
      "min": [
        0.4717961549758911,
        0.0
      ],
      "type": "VEC2"
    },
    {
      "bufferView": 0,
      "byteOffset": 925944,
      "componentType": 5125,
      "count": 2016,
      "type": "SCALAR"
    },
    {
      "bufferView": 2,
      "byteOffset": 1054416,
      "componentType": 5126,
      "count": 45866,
      "max": [
        0.4865237772464752,
        1.7737793922424316,
        -0.10437629371881485
      ],
      "min": [
        -0.4865237772464752,
        -0.5546804666519165,
        -0.7116178274154663
      ],
      "type": "VEC3"
    },
    {
      "bufferView": 2,
      "byteOffset": 1604808,
      "componentType": 5126,
      "count": 45866,
      "max": [
        1.0,
        0.9999998211860657,
        1.0
      ],
      "min": [
        -1.0,
        -0.9999805688858032,
        -1.0
      ],
      "type": "VEC3"
    },
    {
      "bufferView": 1,
      "byteOffset": 351472,
      "componentType": 5126,
      "count": 45866,
      "max": [
        0.916793167591095,
        1.0
      ],
      "min": [
        0.0,
        0.0
      ],
      "type": "VEC2"
    },
    {
      "bufferView": 0,
      "byteOffset": 934008,
      "componentType": 5125,
      "count": 210768,
      "type": "SCALAR"
    },
    {
      "bufferView": 2,
      "byteOffset": 2155200,
      "componentType": 5126,
      "count": 10758,
      "max": [
        0.36366862058639526,
        1.3492136001586914,
        -0.13947437703609467
      ],
      "min": [
        -0.36366862058639526,
        0.34335267543792725,
        -0.3396280109882355
      ],
      "type": "VEC3"
    },
    {
      "bufferView": 2,
      "byteOffset": 2284296,
      "componentType": 5126,
      "count": 10758,
      "max": [
        0.9998865127563477,
        0.9999797344207764,
        0.9999997615814209
      ],
      "min": [
        -0.9998866319656372,
        -0.9999995231628418,
        -0.9999830722808838
      ],
      "type": "VEC3"
    },
    {
      "bufferView": 1,
      "byteOffset": 718400,
      "componentType": 5126,
      "count": 10758,
      "max": [
        1.0,
        0.9999758005142212
      ],
      "min": [
        0.0,
        0.0
      ],
      "type": "VEC2"
    },
    {
      "bufferView": 0,
      "byteOffset": 1777080,
      "componentType": 5125,
      "count": 46080,
      "type": "SCALAR"
    },
    {
      "bufferView": 2,
      "byteOffset": 2413392,
      "componentType": 5126,
      "count": 9771,
      "max": [
        0.4754614233970642,
        1.3597103357315063,
        -0.10521181672811508
      ],
      "min": [
        -0.4754471182823181,
        0.29403603076934814,
        -0.6516621112823486
      ],
      "type": "VEC3"
    },
    {
      "bufferView": 2,
      "byteOffset": 2530644,
      "componentType": 5126,
      "count": 9771,
      "max": [
        0.9999953508377075,
        0.9999589920043945,
        1.0
      ],
      "min": [
        -1.0,
        -0.9999874830245972,
        -0.9999844431877136
      ],
      "type": "VEC3"
    },
    {
      "bufferView": 1,
      "byteOffset": 804464,
      "componentType": 5126,
      "count": 9771,
      "max": [
        1.0,
        0.8974863886833191
      ],
      "min": [
        0.0,
        0.0
      ],
      "type": "VEC2"
    },
    {
      "bufferView": 0,
      "byteOffset": 1961400,
      "componentType": 5125,
      "count": 47082,
      "type": "SCALAR"
    },
    {
      "bufferView": 2,
      "byteOffset": 2647896,
      "componentType": 5126,
      "count": 1560,
      "max": [
        0.01332829613238573,
        0.06262578070163727,
        0.05982254445552826
      ],
      "min": [
        -0.3185650706291199,
        -0.01829829066991806,
        -0.05715668201446533
      ],
      "type": "VEC3"
    },
    {
      "bufferView": 2,
      "byteOffset": 2666616,
      "componentType": 5126,
      "count": 1560,
      "max": [
        1.0,
        0.9998433589935303,
        0.999274492263794
      ],
      "min": [
        -1.0,
        -0.9996730089187622,
        -0.999835729598999
      ],
      "type": "VEC3"
    },
    {
      "bufferView": 1,
      "byteOffset": 882632,
      "componentType": 5126,
      "count": 1560,
      "max": [
        0.9380943179130554,
        0.9293882250785828
      ],
      "min": [
        0.03352958336472511,
        0.34138980507850647
      ],
      "type": "VEC2"
    },
    {
      "bufferView": 0,
      "byteOffset": 2149728,
      "componentType": 5125,
      "count": 7296,
      "type": "SCALAR"
    },
    {
      "bufferView": 2,
      "byteOffset": 2685336,
      "componentType": 5126,
      "count": 1116,
      "max": [
        -0.07450246065855026,
        -0.06881581246852875,
        -0.029099078848958015
      ],
      "min": [
        -0.6987448334693909,
        -0.1093270480632782,
        -0.05138394981622696
      ],
      "type": "VEC3"
    },
    {
      "bufferView": 2,
      "byteOffset": 2698728,
      "componentType": 5126,
      "count": 1116,
      "max": [
        0.9986486434936523,
        0.9941437840461731,
        0.9724891185760498
      ],
      "min": [
        -0.9986501932144165,
        -0.9996196031570435,
        -0.9740194082260132
      ],
      "type": "VEC3"
    },
    {
      "bufferView": 3,
      "byteOffset": 38976,
      "componentType": 5126,
      "count": 1116,
      "max": [
        0.9996935129165649,
        0.9822776913642883,
        0.9982491135597229,
        1.0
      ],
      "min": [
        -0.9996935129165649,
        -0.9803032279014587,
        -0.9995885491371155,
        -1.0
      ],
      "type": "VEC4"
    },
    {
      "bufferView": 1,
      "byteOffset": 895112,
      "componentType": 5126,
      "count": 1116,
      "max": [
        1.0,
        0.904755175113678
      ],
      "min": [
        0.0,
        0.0
      ],
      "type": "VEC2"
    },
    {
      "bufferView": 0,
      "byteOffset": 2178912,
      "componentType": 5125,
      "count": 6168,
      "type": "SCALAR"
    },
    {
      "bufferView": 2,
      "byteOffset": 2712120,
      "componentType": 5126,
      "count": 1084,
      "max": [
        0.4807460904121399,
        1.6698986291885376,
        -0.4164421260356903
      ],
      "min": [
        -0.4807460904121399,
        -0.4027232229709625,
        -0.7257667779922485
      ],
      "type": "VEC3"
    },
    {
      "bufferView": 2,
      "byteOffset": 2725128,
      "componentType": 5126,
      "count": 1084,
      "max": [
        0.7379322052001953,
        0.9999929070472717,
        0.07016095519065857
      ],
      "min": [
        -0.7379323840141296,
        -0.9999917149543762,
        -0.9999995827674866
      ],
      "type": "VEC3"
    },
    {
      "bufferView": 1,
      "byteOffset": 904040,
      "componentType": 5126,
      "count": 1084,
      "max": [
        0.37402188777923584,
        1.0
      ],
      "min": [
        0.0,
        0.0
      ],
      "type": "VEC2"
    },
    {
      "bufferView": 0,
      "byteOffset": 2203584,
      "componentType": 5125,
      "count": 5448,
      "type": "SCALAR"
    },
    {
      "bufferView": 2,
      "byteOffset": 2738136,
      "componentType": 5126,
      "count": 1714,
      "max": [
        0.36025598645210266,
        1.3457279205322266,
        -0.14339694380760193
      ],
      "min": [
        -0.36025598645210266,
        0.34817659854888916,
        -0.3362080454826355
      ],
      "type": "VEC3"
    },
    {
      "bufferView": 2,
      "byteOffset": 2758704,
      "componentType": 5126,
      "count": 1714,
      "max": [
        0.98879075050354,
        0.7424333691596985,
        0.9999991059303284
      ],
      "min": [
        -0.98879075050354,
        -0.9984859228134155,
        -0.986893892288208
      ],
      "type": "VEC3"
    },
    {
      "bufferView": 1,
      "byteOffset": 912712,
      "componentType": 5126,
      "count": 1714,
      "max": [
        0.9999999403953552,
        0.9604406356811523
      ],
      "min": [
        0.0,
        0.0
      ],
      "type": "VEC2"
    },
    {
      "bufferView": 0,
      "byteOffset": 2225376,
      "componentType": 5125,
      "count": 9300,
      "type": "SCALAR"
    },
    {
      "bufferView": 2,
      "byteOffset": 2779272,
      "componentType": 5126,
      "count": 25542,
      "max": [
        0.1073409840464592,
        0.177837535738945,
        0.177837535738945
      ],
      "min": [
        -0.8736029863357544,
        -0.177837535738945,
        -0.1778375506401062
      ],
      "type": "VEC3"
    },
    {
      "bufferView": 2,
      "byteOffset": 3085776,
      "componentType": 5126,
      "count": 25542,
      "max": [
        1.0,
        1.0,
        1.0
      ],
      "min": [
        -1.0,
        -1.0,
        -1.0
      ],
      "type": "VEC3"
    },
    {
      "bufferView": 1,
      "byteOffset": 926424,
      "componentType": 5126,
      "count": 25542,
      "max": [
        0.9882941842079163,
        1.0000001192092896
      ],
      "min": [
        0.0,
        0.0
      ],
      "type": "VEC2"
    },
    {
      "bufferView": 0,
      "byteOffset": 2262576,
      "componentType": 5125,
      "count": 138120,
      "type": "SCALAR"
    },
    {
      "bufferView": 2,
      "byteOffset": 3392280,
      "componentType": 5126,
      "count": 25570,
      "max": [
        0.1073409840464592,
        0.177837535738945,
        0.177837535738945
      ],
      "min": [
        -0.8736029863357544,
        -0.177837535738945,
        -0.1778375506401062
      ],
      "type": "VEC3"
    },
    {
      "bufferView": 2,
      "byteOffset": 3699120,
      "componentType": 5126,
      "count": 25570,
      "max": [
        1.0,
        1.0,
        1.0
      ],
      "min": [
        -1.0,
        -1.0,
        -1.0
      ],
      "type": "VEC3"
    },
    {
      "bufferView": 1,
      "byteOffset": 1130760,
      "componentType": 5126,
      "count": 25570,
      "max": [
        0.9882941842079163,
        1.0000001192092896
      ],
      "min": [
        0.0,
        0.0
      ],
      "type": "VEC2"
    },
    {
      "bufferView": 0,
      "byteOffset": 2815056,
      "componentType": 5125,
      "count": 138120,
      "type": "SCALAR"
    },
    {
      "bufferView": 2,
      "byteOffset": 4005960,
      "componentType": 5126,
      "count": 2672,
      "max": [
        0.13540826737880707,
        0.05606174096465111,
        0.1323826164007187
      ],
      "min": [
        -0.5178965330123901,
        -0.2836860716342926,
        -0.14166559278964996
      ],
      "type": "VEC3"
    },
    {
      "bufferView": 2,
      "byteOffset": 4038024,
      "componentType": 5126,
      "count": 2672,
      "max": [
        0.9999988079071045,
        0.9972615838050842,
        0.999990701675415
      ],
      "min": [
        -0.9999988079071045,
        -0.9972189664840698,
        -0.999998927116394
      ],
      "type": "VEC3"
    },
    {
      "bufferView": 1,
      "byteOffset": 1335320,
      "componentType": 5126,
      "count": 2672,
      "max": [
        1.0000001192092896,
        0.7868196964263916
      ],
      "min": [
        0.0,
        0.0
      ],
      "type": "VEC2"
    },
    {
      "bufferView": 0,
      "byteOffset": 3367536,
      "componentType": 5125,
      "count": 12288,
      "type": "SCALAR"
    },
    {
      "bufferView": 2,
      "byteOffset": 4070088,
      "componentType": 5126,
      "count": 1212,
      "max": [
        0.023176169022917747,
        0.0033210846595466137,
        0.023176167160272598
      ],
      "min": [
        -0.7161508798599243,
        -0.04785333573818207,
        -0.023176172748208046
      ],
      "type": "VEC3"
    },
    {
      "bufferView": 2,
      "byteOffset": 4084632,
      "componentType": 5126,
      "count": 1212,
      "max": [
        1.0,
        0.0,
        1.0
      ],
      "min": [
        -1.0,
        -1.0,
        -1.0
      ],
      "type": "VEC3"
    },
    {
      "bufferView": 3,
      "byteOffset": 56832,
      "componentType": 5126,
      "count": 1212,
      "max": [
        0.9997922778129578,
        0.9999505877494812,
        0.9919743537902832,
        1.0
      ],
      "min": [
        -0.9997922778129578,
        -0.9999549388885498,
        -0.7296958565711975,
        -1.0
      ],
      "type": "VEC4"
    },
    {
      "bufferView": 1,
      "byteOffset": 1356696,
      "componentType": 5126,
      "count": 1212,
      "max": [
        0.9411434531211853,
        0.8154509663581848
      ],
      "min": [
        0.0,
        0.0
      ],
      "type": "VEC2"
    },
    {
      "bufferView": 0,
      "byteOffset": 3416688,
      "componentType": 5125,
      "count": 5568,
      "type": "SCALAR"
    },
    {
      "bufferView": 2,
      "byteOffset": 4099176,
      "componentType": 5126,
      "count": 288,
      "max": [
        0.025881726294755936,
        0.007255771197378635,
        0.02656199038028717
      ],
      "min": [
        -0.8111754059791565,
        -0.03946975618600845,
        -0.055970411747694016
      ],
      "type": "VEC3"
    },
    {
      "bufferView": 2,
      "byteOffset": 4102632,
      "componentType": 5126,
      "count": 288,
      "max": [
        0.9956328868865967,
        0.9690782427787781,
        0.9786087274551392
      ],
      "min": [
        -0.9956328868865967,
        -0.9916165471076965,
        -0.8578519225120544
      ],
      "type": "VEC3"
    },
    {
      "bufferView": 1,
      "byteOffset": 1366392,
      "componentType": 5126,
      "count": 288,
      "max": [
        0.38809511065483093,
        1.0
      ],
      "min": [
        0.0,
        0.0
      ],
      "type": "VEC2"
    },
    {
      "bufferView": 0,
      "byteOffset": 3438960,
      "componentType": 5125,
      "count": 1320,
      "type": "SCALAR"
    },
    {
      "bufferView": 2,
      "byteOffset": 4106088,
      "componentType": 5126,
      "count": 589,
      "max": [
        0.061226602643728256,
        0.02805202268064022,
        0.055860698223114014
      ],
      "min": [
        -0.061226606369018555,
        -0.02805202640593052,
        -0.05586069077253342
      ],
      "type": "VEC3"
    },
    {
      "bufferView": 2,
      "byteOffset": 4113156,
      "componentType": 5126,
      "count": 589,
      "max": [
        1.0,
        0.9945188760757446,
        0.9984833598136902
      ],
      "min": [
        -1.0,
        -0.9945156574249268,
        -0.9984833598136902
      ],
      "type": "VEC3"
    },
    {
      "bufferView": 1,
      "byteOffset": 1368696,
      "componentType": 5126,
      "count": 589,
      "max": [
        0.06637462973594666,
        1.0
      ],
      "min": [
        0.0,
        0.0
      ],
      "type": "VEC2"
    },
    {
      "bufferView": 0,
      "byteOffset": 3444240,
      "componentType": 5125,
      "count": 2880,
      "type": "SCALAR"
    },
    {
      "bufferView": 2,
      "byteOffset": 4120224,
      "componentType": 5126,
      "count": 6080,
      "max": [
        0.44062256813049316,
        0.20898853242397308,
        -0.002013290533795953
      ],
      "min": [
        -0.5182064175605774,
        -0.3255007863044739,
        -0.3914576470851898
      ],
      "type": "VEC3"
    },
    {
      "bufferView": 2,
      "byteOffset": 4193184,
      "componentType": 5126,
      "count": 6080,
      "max": [
        0.99985271692276,
        0.9998825788497925,
        0.9997907280921936
      ],
      "min": [
        -0.99985271692276,
        -0.9989457726478577,
        -0.999790608882904
      ],
      "type": "VEC3"
    },
    {
      "bufferView": 1,
      "byteOffset": 1373408,
      "componentType": 5126,
      "count": 6080,
      "max": [
        0.8754804134368896,
        0.44498035311698914
      ],
      "min": [
        0.0,
        0.0
      ],
      "type": "VEC2"
    },
    {
      "bufferView": 0,
      "byteOffset": 3455760,
      "componentType": 5125,
      "count": 31104,
      "type": "SCALAR"
    },
    {
      "bufferView": 2,
      "byteOffset": 4266144,
      "componentType": 5126,
      "count": 3488,
      "max": [
        0.4369913339614868,
        0.2086808979511261,
        -0.005654812324792147
      ],
      "min": [
        -0.514575183391571,
        -0.3252025842666626,
        -0.39146924018859863
      ],
      "type": "VEC3"
    },
    {
      "bufferView": 2,
      "byteOffset": 4308000,
      "componentType": 5126,
      "count": 3488,
      "max": [
        0.9982684254646301,
        0.9898530840873718,
        0.775044322013855
      ],
      "min": [
        -0.998268723487854,
        -0.9976122379302979,
        -0.9997905492782593
      ],
      "type": "VEC3"
    },
    {
      "bufferView": 1,
      "byteOffset": 1422048,
      "componentType": 5126,
      "count": 3488,
      "max": [
        0.0,
        0.0
      ],
      "min": [
        0.0,
        0.0
      ],
      "type": "VEC2"
    },
    {
      "bufferView": 0,
      "byteOffset": 3580176,
      "componentType": 5125,
      "count": 16896,
      "type": "SCALAR"
    },
    {
      "bufferView": 2,
      "byteOffset": 4349856,
      "componentType": 5126,
      "count": 462,
      "max": [
        0.3295348286628723,
        0.1903935968875885,
        -0.0704720988869667
      ],
      "min": [
        -0.40711867809295654,
        -0.20867009460926056,
        -0.22438523173332214
      ],
      "type": "VEC3"
    },
    {
      "bufferView": 2,
      "byteOffset": 4355400,
      "componentType": 5126,
      "count": 462,
      "max": [
        0.9623070955276489,
        0.029889969155192375,
        0.6808186769485474
      ],
      "min": [
        -0.9623051285743713,
        -0.06572727113962173,
        0.2688303291797638
      ],
      "type": "VEC3"
    },
    {
      "bufferView": 1,
      "byteOffset": 1449952,
      "componentType": 5126,
      "count": 462,
      "max": [
        0.8191150426864624,
        1.0
      ],
      "min": [
        0.6041374802589417,
        0.4999997913837433
      ],
      "type": "VEC2"
    },
    {
      "bufferView": 0,
      "byteOffset": 3647760,
      "componentType": 5125,
      "count": 2400,
      "type": "SCALAR"
    },
    {
      "bufferView": 2,
      "byteOffset": 4360944,
      "componentType": 5126,
      "count": 2028,
      "max": [
        0.3321976363658905,
        0.19222620129585266,
        -0.06658237427473068
      ],
      "min": [
        -0.4097815155982971,
        -0.2134183794260025,
        -0.22721771895885468
      ],
      "type": "VEC3"
    },
    {
      "bufferView": 2,
      "byteOffset": 4385280,
      "componentType": 5126,
      "count": 2028,
      "max": [
        0.9999493956565857,
        0.9896503686904907,
        0.999985933303833
      ],
      "min": [
        -0.9999494552612305,
        -0.990467369556427,
        -0.9999853372573853
      ],
      "type": "VEC3"
    },
    {
      "bufferView": 1,
      "byteOffset": 1453648,
      "componentType": 5126,
      "count": 2028,
      "max": [
        0.9070122241973877,
        0.8784074783325195
      ],
      "min": [
        0.09233464300632477,
        0.49875640869140625
      ],
      "type": "VEC2"
    },
    {
      "bufferView": 0,
      "byteOffset": 3657360,
      "componentType": 5125,
      "count": 8640,
      "type": "SCALAR"
    }
  ],
  "asset": {
    "extras": {
      "author": "funkyJeans (https://sketchfab.com/gantumuronon539)",
      "license": "CC-BY-4.0 (http://creativecommons.org/licenses/by/4.0/)",
      "source": "https://sketchfab.com/3d-models/mercedes-car-5a387c25af3847b1bf12390d57fb5a53",
      "title": "Mercedes car"
    },
    "generator": "Sketchfab-12.66.0",
    "version": "2.0"
  },
  "bufferViews": [
    {
      "buffer": 0,
      "byteLength": 3691920,
      "name": "floatBufferViews",
      "target": 34963
    },
    {
      "buffer": 0,
      "byteLength": 1469872,
      "byteOffset": 3691920,
      "byteStride": 8,
      "name": "floatBufferViews",
      "target": 34962
    },
    {
      "buffer": 0,
      "byteLength": 4409616,
      "byteOffset": 5161792,
      "byteStride": 12,
      "name": "floatBufferViews",
      "target": 34962
    },
    {
      "buffer": 0,
      "byteLength": 76224,
      "byteOffset": 9571408,
      "byteStride": 16,
      "name": "floatBufferViews",
      "target": 34962
    }
  ],
  "buffers": [
    {
      "byteLength": 9647632,
      "uri": "scene.bin"
    }
  ],
  "images": [
    {
      "uri": "textures/front_light_mat_baseColor.png"
    },
    {
      "uri": "textures/front_light_mat_normal.png"
    },
    {
      "uri": "textures/net_mat_baseColor.png"
    },
    {
      "uri": "textures/small_light_mat_baseColor.png"
    },
    {
      "uri": "textures/small_light_mat_normal.png"
    },
    {
      "uri": "textures/tire_mat_baseColor.png"
    },
    {
      "uri": "textures/tire_mat_metallicRoughness.png"
    }
  ],
  "materials": [
    {
      "doubleSided": true,
      "name": "metal_detail",
      "pbrMetallicRoughness": {
        "baseColorFactor": [
          0.8,
          0.8,
          0.8,
          1.0
        ],
        "metallicFactor": 0.9988584474885845,
        "roughnessFactor": 0.11666484261471766
      }
    },
    {
      "doubleSided": true,
      "name": "front_light_mat",
      "normalTexture": {
        "index": 1
      },
      "pbrMetallicRoughness": {
        "baseColorTexture": {
          "index": 0
        },
        "metallicFactor": 0.0,
        "roughnessFactor": 0.8040408205773457
      }
    },
    {
      "doubleSided": true,
      "name": "base_color",
      "pbrMetallicRoughness": {
        "baseColorFactor": [
          0.0,
          0.0,
          0.0,
          1.0
        ],
        "metallicFactor": 0.3117988800321033,
        "roughnessFactor": 0.10450449628805425
      }
    },
    {
      "doubleSided": true,
      "name": "net_mat",
      "pbrMetallicRoughness": {
        "baseColorTexture": {
          "index": 2
        },
        "metallicFactor": 0.0,
        "roughnessFactor": 0.8040408205773457
      }
    },
    {
      "doubleSided": true,
      "name": "Material.001",
      "pbrMetallicRoughness": {
        "baseColorFactor": [
          0.0122169,
          0.0122169,
          0.0122169,
          1.0
        ],
        "metallicFactor": 0.0,
        "roughnessFactor": 0.08018380363472744
      }
    },
    {
      "doubleSided": true,
      "name": "leather",
      "pbrMetallicRoughness": {
        "baseColorFactor": [
          0.8,
          0.394125,
          0.0968556,
          1.0
        ],
        "metallicFactor": 0.11115316564215749,
        "roughnessFactor": 0.5240364445579411
      }
    },
    {
      "doubleSided": true,
      "name": "small_light_mat",
      "normalTexture": {
        "index": 4
      },
      "pbrMetallicRoughness": {
        "baseColorTexture": {
          "index": 3
        },
        "metallicFactor": 0.0,
        "roughnessFactor": 0.8040408205773457
      }
    },
    {
      "doubleSided": true,
      "name": "bottom_mat",
      "pbrMetallicRoughness": {
        "baseColorFactor": [
          0.00489553,
          0.00489553,
          0.00489553,
          1.0
        ],
        "metallicFactor": 0.0,
        "roughnessFactor": 0.8219649295611939
      }
    },
    {
      "alphaMode": "BLEND",
      "doubleSided": true,
      "name": "window_mat",
      "pbrMetallicRoughness": {
        "baseColorFactor": [
          0.0,
          0.0,
          0.0,
          0.9076558500386092
        ],
        "metallicFactor": 0.0,
        "roughnessFactor": 0.0
      }
    },
    {
      "doubleSided": true,
      "name": "tire_mat",
      "pbrMetallicRoughness": {
        "baseColorTexture": {
          "index": 5
        },
        "metallicFactor": 0.0,
        "metallicRoughnessTexture": {
          "index": 6
        },
        "roughnessFactor": 0.5671661528920344
      }
    }
  ],
  "meshes": [
    {
      "name": "Plane.001_metal_detail_0",
      "primitives": [
        {
          "attributes": {
            "NORMAL": 1,
            "POSITION": 0,
            "TEXCOORD_0": 2
          },
          "indices": 3,
          "material": 0,
          "mode": 4
        }
      ]
    },
    {
      "name": "Cylinder_metal_detail_0",
      "primitives": [
        {
          "attributes": {
            "NORMAL": 5,
            "POSITION": 4,
            "TEXCOORD_0": 6
          },
          "indices": 7,
          "material": 0,
          "mode": 4
        }
      ]
    },
    {
      "name": "Cylinder_front_light_mat_0",
      "primitives": [
        {
          "attributes": {
            "NORMAL": 9,
            "POSITION": 8,
            "TANGENT": 10,
            "TEXCOORD_0": 11
          },
          "indices": 12,
          "material": 1,
          "mode": 4
        }
      ]
    },
    {
      "name": "NurbsPath_base_color_0",
      "primitives": [
        {
          "attributes": {
            "NORMAL": 14,
            "POSITION": 13,
            "TEXCOORD_0": 15
          },
          "indices": 16,
          "material": 2,
          "mode": 4
        }
      ]
    },
    {
      "name": "NurbsPath.001_base_color_0",
      "primitives": [
        {
          "attributes": {
            "NORMAL": 18,
            "POSITION": 17,
            "TEXCOORD_0": 19
          },
          "indices": 20,
          "material": 2,
          "mode": 4
        }
      ]
    },
    {
      "name": "NurbsPath.002_base_color_0",
      "primitives": [
        {
          "attributes": {
            "NORMAL": 22,
            "POSITION": 21,
            "TEXCOORD_0": 23
          },
          "indices": 24,
          "material": 2,
          "mode": 4
        }
      ]
    },
    {
      "name": "Cube.001_metal_detail_0",
      "primitives": [
        {
          "attributes": {
            "NORMAL": 26,
            "POSITION": 25,
            "TEXCOORD_0": 27
          },
          "indices": 28,
          "material": 0,
          "mode": 4
        }
      ]
    },
    {
      "name": "Cube.002_metal_detail_0",
      "primitives": [
        {
          "attributes": {
            "NORMAL": 30,
            "POSITION": 29,
            "TEXCOORD_0": 31
          },
          "indices": 32,
          "material": 0,
          "mode": 4
        }
      ]
    },
    {
      "name": "front_net_base_color_0",
      "primitives": [
        {
          "attributes": {
            "NORMAL": 34,
            "POSITION": 33,
            "TEXCOORD_0": 35
          },
          "indices": 36,
          "material": 2,
          "mode": 4
        }
      ]
    },
    {
      "name": "front_net_net_mat_0",
      "primitives": [
        {
          "attributes": {
            "NORMAL": 38,
            "POSITION": 37,
            "TEXCOORD_0": 39
          },
          "indices": 40,
          "material": 3,
          "mode": 4
        }
      ]
    },
    {
      "name": "Cube.003_metal_detail_0",
      "primitives": [
        {
          "attributes": {
            "NORMAL": 42,
            "POSITION": 41,
            "TEXCOORD_0": 43
          },
          "indices": 44,
          "material": 0,
          "mode": 4
        }
      ]
    },
    {
      "name": "Cylinder.001_Material.001_0",
      "primitives": [
        {
          "attributes": {
            "NORMAL": 46,
            "POSITION": 45,
            "TEXCOORD_0": 47
          },
          "indices": 48,
          "material": 4,
          "mode": 4
        }
      ]
    },
    {
      "name": "Cylinder.001_metal_detail_0",
      "primitives": [
        {
          "attributes": {
            "NORMAL": 50,
            "POSITION": 49,
            "TEXCOORD_0": 51
          },
          "indices": 52,
          "material": 0,
          "mode": 4
        }
      ]
    },
    {
      "name": "side_net_net_mat_0",
      "primitives": [
        {
          "attributes": {
            "NORMAL": 54,
            "POSITION": 53,
            "TEXCOORD_0": 55
          },
          "indices": 56,
          "material": 3,
          "mode": 4
        }
      ]
    },
    {
      "name": "body_base_color_0",
      "primitives": [
        {
          "attributes": {
            "NORMAL": 58,
            "POSITION": 57,
            "TEXCOORD_0": 59
          },
          "indices": 60,
          "material": 2,
          "mode": 4
        }
      ]
    },
    {
      "name": "window_frame_metal_detail_0",
      "primitives": [
        {
          "attributes": {
            "NORMAL": 62,
            "POSITION": 61,
            "TEXCOORD_0": 63
          },
          "indices": 64,
          "material": 0,
          "mode": 4
        }
      ]
    },
    {
      "name": "inside_leather_0",
      "primitives": [
        {
          "attributes": {
            "NORMAL": 66,
            "POSITION": 65,
            "TEXCOORD_0": 67
          },
          "indices": 68,
          "material": 5,
          "mode": 4
        }
      ]
    },
    {
      "name": "Cube.005_metal_detail_0",
      "primitives": [
        {
          "attributes": {
            "NORMAL": 70,
            "POSITION": 69,
            "TEXCOORD_0": 71
          },
          "indices": 72,
          "material": 0,
          "mode": 4
        }
      ]
    },
    {
      "name": "small_back_light_small_light_mat_0",
      "primitives": [
        {
          "attributes": {
            "NORMAL": 74,
            "POSITION": 73,
            "TANGENT": 75,
            "TEXCOORD_0": 76
          },
          "indices": 77,
          "material": 6,
          "mode": 4
        }
      ]
    },
    {
      "name": "bottom_bottom_mat_0",
      "primitives": [
        {
          "attributes": {
            "NORMAL": 79,
            "POSITION": 78,
            "TEXCOORD_0": 80
          },
          "indices": 81,
          "material": 7,
          "mode": 4
        }
      ]
    },
    {
      "name": "window_window_mat_0",
      "primitives": [
        {
          "attributes": {
            "NORMAL": 83,
            "POSITION": 82,
            "TEXCOORD_0": 84
          },
          "indices": 85,
          "material": 8,
          "mode": 4
        }
      ]
    },
    {
      "name": "Cylinder.002_tire_mat_0",
      "primitives": [
        {
          "attributes": {
            "NORMAL": 87,
            "POSITION": 86,
            "TEXCOORD_0": 88
          },
          "indices": 89,
          "material": 9,
          "mode": 4
        }
      ]
    },
    {
      "name": "Cylinder.004_tire_mat_0",
      "primitives": [
        {
          "attributes": {
            "NORMAL": 91,
            "POSITION": 90,
            "TEXCOORD_0": 92
          },
          "indices": 93,
          "material": 9,
          "mode": 4
        }
      ]
    },
    {
      "name": "seat_leather_0",
      "primitives": [
        {
          "attributes": {
            "NORMAL": 95,
            "POSITION": 94,
            "TEXCOORD_0": 96
          },
          "indices": 97,
          "material": 5,
          "mode": 4
        }
      ]
    },
    {
      "name": "small_front_light_small_light_mat_0",
      "primitives": [
        {
          "attributes": {
            "NORMAL": 99,
            "POSITION": 98,
            "TANGENT": 100,
            "TEXCOORD_0": 101
          },
          "indices": 102,
          "material": 6,
          "mode": 4
        }
      ]
    },
    {
      "name": "mirror_metal_detail_0",
      "primitives": [
        {
          "attributes": {
            "NORMAL": 104,
            "POSITION": 103,
            "TEXCOORD_0": 105
          },
          "indices": 106,
          "material": 0,
          "mode": 4
        }
      ]
    },
    {
      "name": "wheel_leather_0",
      "primitives": [
        {
          "attributes": {
            "NORMAL": 108,
            "POSITION": 107,
            "TEXCOORD_0": 109
          },
          "indices": 110,
          "material": 5,
          "mode": 4
        }
      ]
    },
    {
      "name": "door_base_color_0",
      "primitives": [
        {
          "attributes": {
            "NORMAL": 112,
            "POSITION": 111,
            "TEXCOORD_0": 113
          },
          "indices": 114,
          "material": 2,
          "mode": 4
        }
      ]
    },
    {
      "name": "door_leather_0",
      "primitives": [
        {
          "attributes": {
            "NORMAL": 116,
            "POSITION": 115,
            "TEXCOORD_0": 117
          },
          "indices": 118,
          "material": 5,
          "mode": 4
        }
      ]
    },
    {
      "name": "door_window_mat_0",
      "primitives": [
        {
          "attributes": {
            "NORMAL": 120,
            "POSITION": 119,
            "TEXCOORD_0": 121
          },
          "indices": 122,
          "material": 8,
          "mode": 4
        }
      ]
    },
    {
      "name": "door_metal_detail_0",
      "primitives": [
        {
          "attributes": {
            "NORMAL": 124,
            "POSITION": 123,
            "TEXCOORD_0": 125
          },
          "indices": 126,
          "material": 0,
          "mode": 4
        }
      ]
    }
  ],
  "nodes": [
    {
      "children": [
        1
      ],
      "matrix": [
        1.0,
        0.0,
        0.0,
        0.0,
        0.0,
        2.220446049250313e-16,
        -1.0,
        0.0,
        0.0,
        1.0,
        2.220446049250313e-16,
        0.0,
        0.0,
        0.0,
        0.0,
        1.0
      ],
      "name": "Sketchfab_model"
    },
    {
      "children": [
        2
      ],
      "matrix": [
        0.009999999776482582,
        0.0,
        0.0,
        0.0,
        0.0,
        0.0,
        0.009999999776482582,
        0.0,
        0.0,
        -0.009999999776482582,
        0.0,
        0.0,
        0.0,
        0.0,
        0.0,
        1.0
      ],
      "name": "aa7d19cd569041ac8c707b0ce029b154.fbx"
    },
    {
      "children": [
        3,
        5,
        8,
        10,
        12,
        14,
        16,
        18,
        21,
        23,
        26,
        28,
        30,
        32,
        34,
        36,
        38,
        40,
        42,
        44,
        46,
        48,
        50,
        52,
        54
      ],
      "name": "RootNode"
    },
    {
      "children": [
        4
      ],
      "matrix": [
        17.429733276367188,
        0.0,
        0.0,
        0.0,
        0.0,
        -2.839663987004154e-06,
        -17.429733276366957,
        0.0,
        0.0,
        17.429733276366957,
        -2.839663987004154e-06,
        0.0,
        1.4037976137700348e-14,
        63.2214241027832,
        34.48441696166992,
        1.0
      ],
      "name": "Plane.001"
    },
    {
      "mesh": 0,
      "name": "Plane.001_metal_detail_0"
    },
    {
      "children": [
        6,
        7
      ],
      "matrix": [
        100.0,
        0.0,
        0.0,
        0.0,
        0.0,
        -1.629206793918314e-05,
        -99.99999999999868,
        0.0,
        0.0,
        99.99999999999868,
        -1.629206793918314e-05,
        0.0,
        34.921844482421875,
        19.11463737487793,
        96.29297637939453,
        1.0
      ],
      "name": "Cylinder"
    },
    {
      "mesh": 1,
      "name": "Cylinder_metal_detail_0"
    },
    {
      "mesh": 2,
      "name": "Cylinder_front_light_mat_0"
    },
    {
      "children": [
        9
      ],
      "matrix": [
        100.0,
        0.0,
        0.0,
        0.0,
        0.0,
        -1.629206793918314e-05,
        -99.99999999999868,
        0.0,
        0.0,
        99.99999999999868,
        -1.629206793918314e-05,
        0.0,
        48.05772399902344,
        20.33102798461914,
        52.90005874633789,
        1.0
      ],
      "name": "NurbsPath"
    },
    {
      "mesh": 3,
      "name": "NurbsPath_base_color_0"
    },
    {
      "children": [
        11
      ],
      "matrix": [
        100.0,
        0.0,
        0.0,
        0.0,
        0.0,
        -1.629206793918314e-05,
        -99.99999999999868,
        0.0,
        0.0,
        99.99999999999868,
        -1.629206793918314e-05,
        0.0,
        48.05772399902344,
        15.851471900939941,
        -80.8667984008789,
        1.0
      ],
      "name": "NurbsPath.001"
    },
    {
      "mesh": 4,
      "name": "NurbsPath.001_base_color_0"
    },
    {
      "children": [
        13
      ],
      "matrix": [
        100.0,
        0.0,
        0.0,
        0.0,
        0.0,
        -1.629206793918314e-05,
        -99.99999999999868,
        0.0,
        0.0,
        99.99999999999868,
        -1.629206793918314e-05,
        0.0,
        13.638533592224121,
        31.80546760559082,
        16.090988159179688,
        1.0
      ],
      "name": "NurbsPath.002"
    },
    {
      "mesh": 5,
      "name": "NurbsPath.002_base_color_0"
    },
    {
      "children": [
        15
      ],
      "matrix": [
        100.0,
        0.0,
        0.0,
        0.0,
        0.0,
        -1.629206793918314e-05,
        -99.99999999999868,
        0.0,
        0.0,
        99.99999999999868,
        -1.629206793918314e-05,
        0.0,
        48.843318939208984,
        -1.759428858757019,
        78.1715087890625,
        1.0
      ],
      "name": "Cube.001"
    },
    {
      "mesh": 6,
      "name": "Cube.001_metal_detail_0"
    },
    {
      "children": [
        17
      ],
      "matrix": [
        100.0,
        0.0,
        0.0,
        0.0,
        0.0,
        -1.629206793918314e-05,
        -99.99999999999868,
        0.0,
        0.0,
        99.99999999999868,
        -1.629206793918314e-05,
        0.0,
        26.850608825683594,
        2.4166290760040283,
        88.93534088134766,
        1.0
      ],
      "name": "Cube.002"
    },
    {
      "mesh": 7,
      "name": "Cube.002_metal_detail_0"
    },
    {
      "children": [
        19,
        20
      ],
      "matrix": [
        100.0,
        0.0,
        0.0,
        0.0,
        0.0,
        -1.629206793918314e-05,
        -99.99999999999868,
        0.0,
        0.0,
        99.99999999999868,
        -1.629206793918314e-05,
        0.0,
        1.4037976137700348e-14,
        63.2214241027832,
        34.48441696166992,
        1.0
      ],
      "name": "front_net"
    },
    {
      "mesh": 8,
      "name": "front_net_base_color_0"
    },
    {
      "mesh": 9,
      "name": "front_net_net_mat_0"
    },
    {
      "children": [
        22
      ],
      "matrix": [
        100.0,
        0.0,
        0.0,
        0.0,
        0.0,
        -1.629206793918314e-05,
        -99.99999999999868,
        0.0,
        0.0,
        99.99999999999868,
        -1.629206793918314e-05,
        0.0,
        0.0,
        11.171642303466797,
        90.74604797363281,
        1.0
      ],
      "name": "Cube.003"
    },
    {
      "mesh": 10,
      "name": "Cube.003_metal_detail_0"
    },
    {
      "children": [
        24,
        25
      ],
      "matrix": [
        100.0,
        0.0,
        0.0,
        0.0,
        0.0,
        -1.629206793918314e-05,
        -99.99999999999868,
        0.0,
        0.0,
        99.99999999999868,
        -1.629206793918314e-05,
        0.0,
        0.08118931204080582,
        11.411840438842773,
        84.63450622558594,
        1.0
      ],
      "name": "Cylinder.001"
    },
    {
      "mesh": 11,
      "name": "Cylinder.001_Material.001_0"
    },
    {
      "mesh": 12,
      "name": "Cylinder.001_metal_detail_0"
    },
    {
      "children": [
        27
      ],
      "matrix": [
        100.0,
        0.0,
        0.0,
        0.0,
        0.0,
        -1.629206793918314e-05,
        -99.99999999999868,
        0.0,
        0.0,
        99.99999999999868,
        -1.629206793918314e-05,
        0.0,
        1.4037976137700348e-14,
        63.2214241027832,
        34.48441696166992,
        1.0
      ],
      "name": "side_net"
    },
    {
      "mesh": 13,
      "name": "side_net_net_mat_0"
    },
    {
      "children": [
        29
      ],
      "matrix": [
        100.0,
        0.0,
        0.0,
        0.0,
        0.0,
        -1.629206793918314e-05,
        -99.99999999999868,
        0.0,
        0.0,
        99.99999999999868,
        -1.629206793918314e-05,
        0.0,
        1.4037976137700348e-14,
        63.2214241027832,
        34.48441696166992,
        1.0
      ],
      "name": "body"
    },
    {
      "mesh": 14,
      "name": "body_base_color_0"
    },
    {
      "children": [
        31
      ],
      "matrix": [
        100.0,
        0.0,
        0.0,
        0.0,
        0.0,
        -1.629206793918314e-05,
        -99.99999999999868,
        0.0,
        0.0,
        99.99999999999868,
        -1.629206793918314e-05,
        0.0,
        1.4037976137700348e-14,
        63.2214241027832,
        34.48441696166992,
        1.0
      ],
      "name": "window_frame"
    },
    {
      "mesh": 15,
      "name": "window_frame_metal_detail_0"
    },
    {
      "children": [
        33
      ],
      "matrix": [
        100.0,
        0.0,
        0.0,
        0.0,
        0.0,
        -1.629206793918314e-05,
        -99.99999999999868,
        0.0,
        0.0,
        99.99999999999868,
        -1.629206793918314e-05,
        0.0,
        1.4037976137700348e-14,
        63.01553726196289,
        34.48441696166992,
        1.0
      ],
      "name": "inside"
    },
    {
      "mesh": 16,
      "name": "inside_leather_0"
    },
    {
      "children": [
        35
      ],
      "matrix": [
        100.0,
        0.0,
        0.0,
        0.0,
        0.0,
        -1.629206793918314e-05,
        -99.99999999999868,
        0.0,
        0.0,
        99.99999999999868,
        -1.629206793918314e-05,
        0.0,
        15.261838912963867,
        4.278463363647461,
        -144.01698303222656,
        1.0
      ],
      "name": "Cube.005"
    },
    {
      "mesh": 17,
      "name": "Cube.005_metal_detail_0"
    },
    {
      "children": [
        37
      ],
      "matrix": [
        100.0,
        0.0,
        0.0,
        0.0,
        0.0,
        -1.629206793918314e-05,
        -99.99999999999868,
        0.0,
        0.0,
        99.99999999999868,
        -1.629206793918314e-05,
        0.0,
        38.6623649597168,
        11.08283805847168,
        -147.61981201171875,
        1.0
      ],
      "name": "small_back_light"
    },
    {
      "mesh": 18,
      "name": "small_back_light_small_light_mat_0"
    },
    {
      "children": [
        39
      ],
      "matrix": [
        100.0,
        0.0,
        0.0,
        0.0,
        0.0,
        -1.629206793918314e-05,
        -99.99999999999868,
        0.0,
        0.0,
        99.99999999999868,
        -1.629206793918314e-05,
        0.0,
        1.4037976137700348e-14,
        63.2214241027832,
        34.48441696166992,
        1.0
      ],
      "name": "bottom"
    },
    {
      "mesh": 19,
      "name": "bottom_bottom_mat_0"
    },
    {
      "children": [
        41
      ],
      "matrix": [
        100.0,
        0.0,
        0.0,
        0.0,
        0.0,
        -1.629206793918314e-05,
        -99.99999999999868,
        0.0,
        0.0,
        99.99999999999868,
        -1.629206793918314e-05,
        0.0,
        1.4037976137700348e-14,
        63.2214241027832,
        34.48441696166992,
        1.0
      ],
      "name": "window"
    },
    {
      "mesh": 20,
      "name": "window_window_mat_0"
    },
    {
      "children": [
        43
      ],
      "matrix": [
        100.0,
        0.0,
        0.0,
        0.0,
        0.0,
        -1.629206793918314e-05,
        -99.99999999999868,
        0.0,
        0.0,
        99.99999999999868,
        -1.629206793918314e-05,
        0.0,
        38.3130989074707,
        -0.3682214617729187,
        52.2418212890625,
        1.0
      ],
      "name": "Cylinder.002"
    },
    {
      "mesh": 21,
      "name": "Cylinder.002_tire_mat_0"
    },
    {
      "children": [
        45
      ],
      "matrix": [
        100.0,
        0.0,
        0.0,
        0.0,
        0.0,
        -1.629206793918314e-05,
        -99.99999999999868,
        0.0,
        0.0,
        99.99999999999868,
        -1.629206793918314e-05,
        0.0,
        38.3130989074707,
        -3.588855266571045,
        -83.25482940673828,
        1.0
      ],
      "name": "Cylinder.004"
    },
    {
      "mesh": 22,
      "name": "Cylinder.004_tire_mat_0"
    },
    {
      "children": [
        47
      ],
      "matrix": [
        100.0,
        0.0,
        0.0,
        0.0,
        0.0,
        -1.629206793918314e-05,
        -99.99999999999868,
        0.0,
        0.0,
        99.99999999999868,
        -1.629206793918314e-05,
        0.0,
        19.124412536621094,
        17.06068229675293,
        -55.92605972290039,
        1.0
      ],
      "name": "seat"
    },
    {
      "mesh": 23,
      "name": "seat_leather_0"
    },
    {
      "children": [
        49
      ],
      "matrix": [
        100.0,
        0.0,
        0.0,
        0.0,
        0.0,
        -1.629206793918314e-05,
        -99.99999999999868,
        0.0,
        0.0,
        99.99999999999868,
        -1.629206793918314e-05,
        0.0,
        34.64873504638672,
        8.243040084838867,
        86.89059448242188,
        1.0
      ],
      "name": "small_front_light"
    },
    {
      "mesh": 24,
      "name": "small_front_light_small_light_mat_0"
    },
    {
      "children": [
        51
      ],
      "matrix": [
        100.0,
        0.0,
        0.0,
        0.0,
        0.0,
        -1.629206793918314e-05,
        -99.99999999999868,
        0.0,
        0.0,
        99.99999999999868,
        -1.629206793918314e-05,
        0.0,
        39.264686584472656,
        33.835052490234375,
        1.2551379203796387,
        1.0
      ],
      "name": "mirror"
    },
    {
      "mesh": 25,
      "name": "mirror_metal_detail_0"
    },
    {
      "children": [
        53
      ],
      "matrix": [
        100.0,
        0.0,
        0.0,
        0.0,
        0.0,
        -1.629206793918314e-05,
        -99.99999999999868,
        0.0,
        0.0,
        99.99999999999868,
        -1.629206793918314e-05,
        0.0,
        16.219289779663086,
        29.766468048095703,
        -11.907398223876953,
        1.0
      ],
      "name": "wheel"
    },
    {
      "mesh": 26,
      "name": "wheel_leather_0"
    },
    {
      "children": [
        55,
        56,
        57,
        58
      ],
      "matrix": [
        100.0,
        0.0,
        0.0,
        0.0,
        0.0,
        -1.629206793918314e-05,
        -99.99999999999868,
        0.0,
        0.0,
        99.99999999999868,
        -1.629206793918314e-05,
        0.0,
        3.8791933059692383,
        52.885990142822266,
        -40.533172607421875,
        1.0
      ],
      "name": "door"
    },
    {
      "mesh": 27,
      "name": "door_base_color_0"
    },
    {
      "mesh": 28,
      "name": "door_leather_0"
    },
    {
      "mesh": 29,
      "name": "door_window_mat_0"
    },
    {
      "mesh": 30,
      "name": "door_metal_detail_0"
    }
  ],
  "samplers": [
    {
      "magFilter": 9729,
      "minFilter": 9987,
      "wrapS": 10497,
      "wrapT": 10497
    }
  ],
  "scene": 0,
  "scenes": [
    {
      "name": "Sketchfab_Scene",
      "nodes": [
        0
      ]
    }
  ],
  "textures": [
    {
      "sampler": 0,
      "source": 0
    },
    {
      "sampler": 0,
      "source": 1
    },
    {
      "sampler": 0,
      "source": 2
    },
    {
      "sampler": 0,
      "source": 3
    },
    {
      "sampler": 0,
      "source": 4
    },
    {
      "sampler": 0,
      "source": 5
    },
    {
      "sampler": 0,
      "source": 6
    }
  ]
}
